<svg width="102" height="133" viewBox="0 0 102 133" fill="none" xmlns="http://www.w3.org/2000/svg">
<path fill-rule="evenodd" clip-rule="evenodd" d="M39.7184 26.6423C38.9136 27.5157 38.2159 28.264 37.845 28.6575C35.5828 31.0468 30.6842 37.6628 25.717 41.0988C21.9283 43.7215 18.0886 44.5063 15.0701 41.3614C12.3267 38.503 12.4104 33.9692 14.3404 28.881C18.4942 17.9304 30.9765 4.23808 35.8156 1.07538C36.3441 0.730393 37.0503 0.877514 37.3953 1.40599C37.7389 1.93197 37.5918 2.63821 37.0633 2.9832C32.4202 6.0194 20.4603 19.1777 16.4722 29.6903C14.9141 33.7996 14.5003 37.474 16.717 39.7826C18.9036 42.0621 21.6719 41.1251 24.4184 39.2237C29.2532 35.8808 33.987 29.4164 36.1884 27.0888C37.5692 25.6304 42.6783 19.9196 43.2341 19.5356C43.9297 19.0542 44.4746 19.4341 44.644 19.5722C44.7755 19.679 45.3965 20.254 44.8634 21.1433C37.2684 33.8282 34.3937 58.5501 39.9057 79.9352C45.3691 101.132 59.1412 119.087 85.0581 118.438C85.6876 118.423 86.2112 118.922 86.2283 119.55C86.2429 120.18 85.7445 120.703 85.115 120.718C57.9597 121.398 43.4206 102.712 37.6968 80.506C32.8723 61.7909 34.3606 40.6006 39.7184 26.6423Z" fill="white"/>
</svg>
